<svg class="bi me-2" xmlns="http://www.w3.org/2000/svg" viewBox="0 0 353.969117 401.290452">
  <style>
    .favicon-fill {
      fill: #FFF;
    }

    @media (prefers-color-scheme: light) {
      .favicon-fill {
        fill: #222;
      }
    }
  </style>
  <g fill-rule="evenodd" class="favicon-fill">
    <path
      d="M286 256.958c26.64 0 49.264-9.37 67.874-28.11l-33.963-33.97c-9.769 9.386-21.073 14.08-33.911 14.08-19.257 0-48-14.047-48-48s28.305-48 48-48c13.13 0 24.477 4.682 34.04 14.047l33.93-33.843C335.37 74.36 312.713 64.958 286 64.958c-53.02 0-96 42.98-96 96 0 53.019 42.98 96 96 96Z" />
    <path
      d="m119.971 0 43.85 19.523-24.758 55.611C170.458 90.918 192 123.422 192 160.958c0 28.694-12.59 54.448-32.546 72.04a109.065 109.065 0 0 1 4.675 4.41c37.49 37.49 37.49 98.274 0 135.765-37.49 37.49-98.274 37.49-135.764 0C9.475 354.283.102 331.615.247 305.168l47.922.06c.14 13.385 4.853 24.72 14.137 34.004 13.926 13.926 43.874 24.008 67.882 0 24.008-24.009 13.617-54.266 0-67.883-9.078-9.078-20.39-13.752-33.935-14.022v-.37H96c-53.02 0-96-42.98-96-96 0-51.339 40.3-93.266 90.992-95.87L119.972 0ZM96 112.958c-26.51 0-48 21.49-48 48s21.49 48 48 48 48-21.49 48-48-21.49-48-48-48Z" />
  </g>
</svg>