<?xml version="1.0" encoding="UTF-8"?>
<svg width="142px" height="158px" viewBox="0 0 142 158" version="1.1" xmlns="http://www.w3.org/2000/svg" xmlns:xlink="http://www.w3.org/1999/xlink">
    <title>logo</title>
    <defs>
        <polygon id="path-1" points="0 0 0 158 142 158 142 0.253781527"></polygon>
    </defs>
    <g id="main" stroke="none" stroke-width="1" fill="none" fill-rule="evenodd">
        <g transform="translate(-274.000000, -2844.000000)" id="GC">
            <g transform="translate(240.000000, 2806.000811)">
                <g id="logo" transform="translate(34.000000, 38.000000)">
                    <mask id="mask-2" fill="white">
                        <use xlink:href="#path-1"></use>
                    </mask>
                    <g id="Mask"></g>
                    <g id="C" mask="url(#mask-2)">
                        <g transform="translate(76.000000, 25.000000)">
                            <ellipse id="Oval" fill="none" cx="38" cy="37.9999959" rx="38" ry="37.9999959"></ellipse>
                            <path d="M37.7478496,19.001924 L38,18.999998 C35.1504913,18.999998 32.4474919,19.627279 30.0215565,20.7512864 C24.2249412,23.3187816 19,28.8221561 19,38 C19,46.3050835 23.3446015,51.6013143 28.4630513,54.4359248 C31.1966041,56.0261955 34.3628518,56.9533146 37.7420257,56.9982824 L37.7630661,56.9982246 L38,57 C38.0472024,57 38.0943525,56.9998397 38.1414501,56.9995191 L38,56.999998 C38.1469834,56.999998 38.293577,56.998329 38.4397629,56.9950089 C38.4620764,56.9948551 38.4847736,56.994334 38.5074585,56.9937752 C38.592011,56.9911348 38.6762203,56.9883727 38.7602891,56.9850644 C41.1785547,56.8961393 43.4555917,56.3754679 45.5917713,55.4239431 C47.7858364,54.4652086 49.7639205,53.1056405 51.4330303,51.4370239 L64.8667837,64.8733243 C57.5003266,72.2911081 48.544732,76 38,76 C17.0131813,76 0,58.9868142 0,38 C0,17.0131777 17.0131795,0 38,0 C48.5743679,0 57.5425153,3.72145644 64.9044421,11.1643693 L51.4741442,24.5603155 C47.6886267,20.8534385 43.1972453,19 38,19 L38.4507915,19.0052407 C38.3009502,19.001752 38.1506799,18.999998 38,18.999998 L37.7908327,19.0013257 C37.7765158,19.0015066 37.7621881,19.001706 37.7478496,19.001924 Z" id="Combined-Shape" fill="#1D1E1F" fill-rule="evenodd"></path>
                        </g>
                    </g>
                    <g id="G" mask="url(#mask-2)" fill="#1D1E1F">
                        <g transform="translate(-7.293669, -0.223852)" id="Combined-Shape">
                            <path d="M55.219325,105.514468 C55.1334122,105.514468 55.0470842,105.515145 54.9603608,105.516503 L55.219325,105.514468 C55.0513988,105.514468 54.8839829,105.516653 54.7171041,105.520998 C52.0591551,105.590196 49.5374709,106.207057 47.2606328,107.262949 C41.4822303,109.824289 36.2735139,115.314236 36.2735139,124.468909 C36.2735139,132.708908 40.5586115,137.979907 45.6261612,140.818951 L45.6570114,140.835513 C48.3966309,142.441076 51.5753673,143.37782 54.9693121,143.421734 L54.9805937,143.421542 L55.219325,143.42335 C55.3459414,143.42335 55.4722677,143.422108 55.5982923,143.419634 C55.6770474,143.418424 55.7553865,143.416529 55.8335785,143.414184 C55.876002,143.412225 55.9183614,143.410734 55.9606853,143.409105 C56.0503043,143.406717 56.1399111,143.402861 56.2293232,143.39841 C58.6151056,143.279623 60.8622315,142.736522 62.9707008,141.769107 L63.1018386,141.709991 C65.1648806,140.764382 67.0288456,139.459048 68.6135341,137.874226 L78.2490965,147.514786 C78.4108728,147.673275 78.5598752,147.844158 78.6967802,148.024551 C80.3661764,150.224227 79.9362992,153.36073 77.7367054,155.030236 C71.2798298,159.928609 63.7740364,162.377796 55.219325,162.377796 C34.2923617,162.377796 17.3277027,145.405407 17.3277027,124.468909 C17.3277027,103.532411 34.2923599,86.5600262 55.219325,86.5600262 C65.7635344,86.5600262 74.7061042,90.2725597 82.0470345,97.6976266 L68.6550404,111.061453 C64.8803193,107.363463 60.4017475,105.514468 55.219325,105.514468 Z" transform="translate(49.687369, 124.468911) rotate(-135.000000) translate(-49.687369, -124.468911) "></path>
                            <path d="M55.1397659,1.3500312e-13 L72.447633,7.70946913 L62.6751662,29.6694052 C75.0670463,35.9021555 83.5698097,48.7374855 83.5698097,63.5596469 C83.5698097,84.4961447 66.6051525,101.46853 45.6781873,101.46853 C24.7512222,101.46853 7.78656504,84.4961447 7.78656504,63.5596469 C7.78656504,43.2867583 23.6928326,26.7306699 43.7006225,25.7015042 L55.1397659,1.3500312e-13 Z M45.6781873,44.6052056 C35.2147048,44.6052056 26.7323762,53.091398 26.7323762,63.5596469 C26.7323762,74.0278958 35.2147048,82.5140882 45.6781873,82.5140882 C56.1416699,82.5140882 64.6239985,74.0278958 64.6239985,63.5596469 C64.6239985,53.091398 56.1416699,44.6052056 45.6781873,44.6052056 Z"></path>
                        </g>
                    </g>
                </g>
            </g>
        </g>
    </g>
</svg>