<?xml version="1.0" encoding="UTF-8"?>
<svg width="38px" height="36px" viewBox="0 0 38 36" version="1.1" xmlns="http://www.w3.org/2000/svg"
    xmlns:xlink="http://www.w3.org/1999/xlink">
    <title>GitHub</title>
    <g id="main" stroke="none" stroke-width="1" fill="none" fill-rule="evenodd">
        <g transform="translate(-434.000000, -564.000000)" fill="#1D1E1F" id="Hero">
            <g transform="translate(271.500000, 152.000000)">
                <g id="Action" transform="translate(0.000000, 400.000000)">
                    <g id="GitHub" transform="translate(163.000000, 12.000000)">
                        <path
                            d="M18.4604461,0 C8.26741449,0 0,8.27110694 0,18.4622923 C0,26.6041632 5.28944674,33.5275228 12.6263617,35.9645454 C13.5494763,36.130706 13.88549,35.5768372 13.88549,35.0783553 C13.88549,34.6352603 13.8707202,33.4721359 13.861489,31.9397657 C8.72527933,33.0475032 7.64154278,29.4658185 7.64154278,29.4658185 C6.80335471,27.3426549 5.59222833,26.7703238 5.59222833,26.7703238 C3.91585219,25.6256617 5.71961815,25.644124 5.71961815,25.644124 C7.57138607,25.77336 8.5461951,27.5457401 8.5461951,27.5457401 C10.1930316,30.3704708 12.8682177,29.5581299 13.9205684,29.0781103 C14.0885752,27.8965236 14.5649024,27.0657205 15.0929239,26.6226255 C10.9924488,26.1426059 6.68334981,24.5548487 6.68334981,17.4837908 C6.68334981,15.4714009 7.40153298,13.8282569 8.58311968,12.5358965 C8.39295807,12.0743392 7.75970145,10.1911853 8.76405015,7.6618513 C8.76405015,7.6618513 10.3130365,7.16336941 13.8411805,9.54500511 C15.3126252,9.13883468 16.8929974,8.93574947 18.4622923,8.91728717 C20.0315871,8.93574947 21.6101131,9.13883468 23.0852503,9.54500511 C26.6097019,7.16336941 28.156842,7.6618513 28.156842,7.6618513 C29.1648831,10.1911853 28.5316265,12.0743392 28.3414649,12.5358965 C29.5248978,13.8282569 30.2393885,15.4714009 30.2393885,17.4837908 C30.2393885,24.573311 25.9210584,26.1426059 21.8095059,26.6041632 C22.4723022,27.1764942 23.0612493,28.3026941 23.0612493,30.0196873 C23.0612493,32.4751721 23.0390945,34.4690997 23.0390945,35.0783553 C23.0390945,35.5768372 23.373262,36.1491683 24.3093003,35.9645454 C31.6388303,33.5275228 36.9245846,26.6041632 36.9245846,18.4622923 C36.9245846,8.27110694 28.6571701,0 18.4604461,0 Z"
                            id="Path_35"></path>
                    </g>
                </g>
            </g>
        </g>
    </g>
</svg>