<?xml version="1.0" encoding="UTF-8"?>
<svg width="37px" height="36px" viewBox="0 0 37 36" version="1.1" xmlns="http://www.w3.org/2000/svg" xmlns:xlink="http://www.w3.org/1999/xlink">
    <title>LinkedIn</title>
    <g id="main" stroke="none" stroke-width="1" fill="none" fill-rule="evenodd">
        <g transform="translate(-507.000000, -564.000000)" fill="#1D1E1F" fill-rule="nonzero" id="Hero">
            <g transform="translate(271.500000, 152.000000)">
                <g id="Action" transform="translate(0.000000, 400.000000)">
                    <g id="Group-226" transform="translate(235.924585, 12.000000)">
                        <path d="M30.6738,30.6724053 L25.3404,30.6724053 L25.3404,22.3204053 C25.3404,20.3224053 25.3044,17.7664053 22.5666,17.7664053 C19.7874,17.7664053 19.3626,19.9264053 19.3626,22.1764053 L19.3626,30.6724053 L14.0292,30.6724053 L14.0292,13.5004053 L19.1484,13.5004053 L19.1484,15.8404053 L19.2204,15.8404053 C20.2644,14.0584053 22.2102,12.9964053 24.273,13.0684053 C29.6802,13.0684053 30.6774,16.6324053 30.6774,21.2584053 L30.6738,30.6724053 Z M8.01,11.1424053 C6.3108,11.1424053 4.914,9.75640528 4.914,8.04640528 C4.914,6.35440528 6.3108,4.95040528 8.0082,4.95040528 C9.7074,4.95040528 11.1042,6.35440528 11.1042,8.04640528 C11.1042,9.75640528 9.7074,11.1424053 8.01,11.1424053 Z M10.6758,30.6724053 L5.337,30.6724053 L5.337,13.5004053 L10.6758,13.5004053 L10.6758,30.6724053 Z M33.3342,0.000200336049 L2.6568,0.000200336049 C1.2168,-0.0175947176 0.018,1.15240528 0,2.59240528 L0,33.4084053 C0.0162,34.8484053 1.215,36.0184053 2.6568,36.0006102 L33.3342,36.0006102 C34.7778,36.0184053 35.9802,34.8484053 36,33.4084053 L36,2.59240528 C35.9802,1.15240528 34.776,-0.0175947176 33.3342,0.000200336049 L33.3342,0.000200336049 Z" id="icon-merged_7"></path>
                    </g>
                </g>
            </g>
        </g>
    </g>
</svg>