<?xml version="1.0" encoding="UTF-8"?>
<svg width="401px" height="402px" viewBox="0 0 401 402" version="1.1" xmlns="http://www.w3.org/2000/svg" xmlns:xlink="http://www.w3.org/1999/xlink">
    <title>temp_cube</title>
    <g id="Page-1" stroke="none" stroke-width="1" fill="none" fill-rule="evenodd">
        <g id="temp_cube" transform="translate(0.364201, 0.785980)" fill="#AAE4D7" fill-rule="nonzero" stroke="#000000" stroke-width="0.571428571">
            <path d="M393.999519,285.051488 C366.131364,307.88133 366.131364,339.516664 344.861518,339.516664 C316.475606,339.516664 330.576356,375.740547 301.600642,391.287441 C274.136443,406.023333 249.262369,400.519535 221.502163,386.296608 C193.68847,372.046278 175.265915,357.456525 145.887449,346.422616 C115.178657,334.889065 67.9384992,383.616494 46.8060662,359.447059 C22.7414649,331.924066 56.3826196,304.333836 43.801506,270.571028 C33.3002927,242.389861 12.4472181,235.748364 2.39819742,207.417767 C-5.85736636,184.143355 8.21682401,151.869571 29.0816895,137.44655 C55.9498179,118.873722 40.3588265,60.0836974 68.6997163,43.6197543 C83.6115817,34.9570727 111.865561,27.7349109 120.436635,13.2313872 C137.112796,-14.9871385 175.828829,19.3021529 206.287458,4.95140511 C231.150406,-6.76290631 264.454093,4.54063369 289.559213,15.7757833 C314.457241,26.9182542 341.963456,44.7153463 350.979701,69.4865707 C360.935616,96.8394414 355.014727,125.052279 366.131364,151.995786 C376.726943,177.676401 300.405862,193.200226 322.63369,219.589451 C344.861518,245.978675 421.867673,262.221647 393.999519,285.051488 Z" id="two-81"></path>
        </g>
    </g>
</svg>