<?xml version="1.0" encoding="UTF-8"?>
<svg width="200px" height="100px" viewBox="0 0 20 10" version="1.1" xmlns="http://www.w3.org/2000/svg" xmlns:xlink="http://www.w3.org/1999/xlink">
    <title>size=24_95</title>
    <g id="Page-1" stroke="none" stroke-width="1" fill="none" fill-rule="evenodd">
        <g id="Services" transform="translate(-576.000000, -2151.000000)" fill="#000001" fill-rule="nonzero">
            <g id="Grid" transform="translate(20.500000, 208.500000)">
                <g id="Row_16" transform="translate(0.000000, 1920.000000)">
                    <g id="vmware" transform="translate(512.000000, 0.000000)">
                        <g id="size=24_95" transform="translate(43.499822, 23.300000)">
                            <path d="M2.09617843,0.67 C1.84517843,0.1 1.22317843,-0.16 0.643178432,0.11 C0.0621784321,0.37 -0.151821568,1.04 0.111178432,1.61 L2.54717843,7.09 C2.93017843,7.95 3.33417843,8.4 4.09217843,8.4 C4.90217843,8.4 5.25517843,7.91 5.63717843,7.09 C5.63717843,7.09 7.76217843,2.3 7.78417843,2.25 C7.80517843,2.2 7.87317843,2.05 8.09017843,2.05 C8.27317843,2.05 8.42617843,2.2 8.42617843,2.4 L8.42617843,7.09 C8.42617843,7.81 8.81317843,8.4 9.55717843,8.4 C10.3011784,8.4 10.7031784,7.81 10.7031784,7.09 L10.7031784,3.25 C10.7031784,2.52 11.2151784,2.04 11.9121784,2.04 C12.6101784,2.04 13.0741784,2.53 13.0741784,3.25 L13.0741784,7.09 C13.0741784,7.81 13.4621784,8.4 14.2051784,8.4 C14.9481784,8.4 15.3521784,7.81 15.3521784,7.09 L15.3521784,3.25 C15.3521784,2.52 15.8621784,2.04 16.5601784,2.04 C17.2561784,2.04 17.7221784,2.53 17.7221784,3.25 L17.7221784,7.09 C17.7221784,7.81 18.1101784,8.4 18.8531784,8.4 C19.5971784,8.4 20.0001784,7.81 20.0001784,7.09 L20.0001784,2.73 C20.0001784,1.12 18.7551784,0 17.2561784,0 C15.7591784,0 14.8221784,1.07 14.8221784,1.07 C14.3241784,0.4 13.6371784,0 12.4751784,0 C11.2481784,0 10.1751784,1.07 10.1751784,1.07 C9.67617843,0.4 8.82717843,0 8.12517843,0 C7.03817843,0 6.17417843,0.5 5.64817843,1.74 L4.09217843,5.54 L2.09617843,0.67 Z" id="Path_57"></path>
                        </g>
                    </g>
                </g>
            </g>
        </g>
    </g>
</svg>